<?xml version="1.0" standalone="no"?>
<!DOCTYPE svg PUBLIC "-//W3C//DTD SVG 20010904//EN"
 "http://www.w3.org/TR/2001/REC-SVG-20010904/DTD/svg10.dtd">
<svg version="1.0" xmlns="http://www.w3.org/2000/svg"
 width="1120.000000pt" height="1120.000000pt" viewBox="0 0 1120.000000 1120.000000"
 preserveAspectRatio="xMidYMid meet">

<g transform="translate(0.000000,1120.000000) scale(0.100000,-0.100000)"
fill="#000000" stroke="none">
<path d="M0 5600 l0 -5600 5600 0 5600 0 0 5600 0 5600 -5600 0 -5600 0 0
-5600z m2855 2412 c155 -194 306 -293 675 -442 292 -117 410 -184 531 -297
138 -131 217 -261 285 -471 40 -124 57 -159 117 -251 80 -120 120 -202 136
-279 15 -70 13 -207 -4 -257 l-13 -40 -1 50 c-2 122 -64 257 -175 383 -50 57
-70 91 -110 188 -63 155 -124 261 -204 357 -119 144 -270 254 -677 495 -121
72 -249 153 -285 180 -90 68 -192 172 -241 244 -42 62 -109 196 -109 219 0 15
-4 19 75 -79z m-48 -322 c19 -77 71 -201 108 -260 14 -23 24 -45 21 -48 -11
-11 -85 70 -115 127 -35 66 -55 174 -44 240 4 25 8 37 10 26 2 -11 11 -49 20
-85z m401 -294 c67 -37 149 -87 181 -112 160 -120 227 -277 189 -446 l-11 -53
-19 79 c-35 151 -119 268 -295 412 -59 49 -146 126 -193 172 l-85 83 55 -34
c30 -18 110 -64 178 -101z m1909 -47 c419 -242 670 -482 829 -795 28 -56 66
-145 83 -196 33 -99 75 -294 66 -308 -7 -11 20 -20 59 -20 100 0 200 -60 240
-144 14 -30 26 -58 26 -61 0 -4 -75 -3 -166 1 -131 5 -173 11 -202 25 -31 16
-60 19 -197 19 -172 0 -224 -9 -255 -42 -26 -28 -27 -89 -2 -111 26 -24 132
-35 392 -41 305 -8 391 -32 436 -123 27 -55 28 -262 0 -313 -54 -101 -125
-135 -319 -151 -178 -15 -583 -6 -656 15 -129 36 -191 107 -191 218 0 31 5 60
10 63 6 3 10 29 10 56 l0 51 24 -29 c13 -16 36 -35 52 -43 l27 -15 -29 -6
c-17 -3 16 -9 81 -13 61 -4 116 -9 123 -11 6 -3 12 -18 12 -34 0 -41 44 -91
78 -90 24 2 24 2 5 6 -32 6 -63 50 -63 89 l0 34 160 0 c88 0 160 -2 160 -5 0
-3 -13 -32 -30 -65 l-30 -59 -87 -4 c-49 -1 -11 -4 82 -5 94 -1 187 3 207 8
48 14 68 43 68 101 0 57 -27 96 -73 104 -18 3 -162 9 -322 14 -261 8 -296 11
-347 30 -97 37 -123 87 -123 231 1 162 58 246 195 291 24 8 24 8 -5 6 -16 -1
-29 3 -28 8 51 331 -1 699 -141 988 -51 105 -150 257 -214 329 -24 26 -42 48
-39 48 3 0 45 -23 94 -51z m-2335 -19 c35 -50 129 -120 233 -173 l80 -40 -87
-13 c-228 -34 -483 -172 -648 -352 -190 -206 -363 -569 -420 -884 -27 -147
-37 -399 -21 -538 24 -203 102 -447 212 -668 69 -136 47 -115 -42 42 -104 183
-194 428 -234 638 -40 211 -40 506 1 720 38 202 147 510 233 658 109 189 268
385 398 490 77 62 236 160 258 160 6 -1 22 -19 37 -40z m3521 -346 c151 -170
286 -387 368 -592 34 -83 100 -332 93 -344 -5 -8 -274 -11 -274 -4 0 47 -38
263 -64 367 -62 241 -190 531 -321 724 -33 50 -65 97 -70 105 -19 33 185 -163
268 -256z m-3123 -291 c-95 -73 -175 -189 -213 -308 -19 -61 -22 -92 -22 -236
l0 -166 -55 -34 c-75 -47 -235 -209 -294 -297 -112 -170 -227 -446 -257 -615
-6 -37 -13 -67 -14 -65 -2 2 -12 57 -21 123 -24 166 -24 461 0 610 57 350 240
664 499 856 119 89 280 157 377 158 l35 1 -35 -27z m755 -118 c58 -10 130 -49
210 -114 39 -32 113 -89 165 -128 52 -39 108 -84 124 -101 l29 -31 -74 39
c-41 21 -123 61 -184 88 -60 28 -146 71 -190 96 -102 59 -212 104 -289 121
l-61 12 40 8 c64 13 148 22 170 19 11 -2 38 -6 60 -9z m-365 -174 c47 -28 171
-85 275 -126 201 -80 327 -153 333 -192 3 -22 -47 -71 -110 -107 -33 -19 -33
-19 10 28 41 44 43 49 29 69 -23 36 -71 63 -200 113 -145 56 -281 122 -358
175 -62 41 -142 126 -166 173 -13 26 -5 22 43 -26 33 -31 97 -79 144 -107z
m5160 -370 c108 -7 159 -14 200 -30 59 -22 116 -73 144 -129 22 -43 37 -162
21 -168 -6 -3 -83 -3 -170 -2 l-159 3 -8 42 c-17 105 -45 118 -248 118 -176 0
-217 -10 -254 -58 -37 -49 -46 -99 -46 -252 0 -259 33 -303 240 -313 219 -10
286 12 309 103 l11 45 167 0 166 0 -7 -62 c-12 -118 -68 -188 -180 -225 -42
-13 -107 -17 -354 -21 -425 -5 -528 11 -608 100 -58 64 -66 95 -71 268 -15
449 55 558 372 579 153 11 305 11 475 2z m-916 -102 c4 -56 6 -103 4 -104 -2
-2 -57 4 -123 12 -183 23 -846 22 -1020 -1 -71 -9 -142 -19 -156 -22 l-26 -5
1 111 1 110 656 0 656 0 7 -101z m-4649 -222 c-164 -343 -214 -596 -201 -1000
13 -383 60 -634 173 -917 74 -186 251 -457 437 -670 30 -35 54 -65 52 -67 -2
-2 -32 13 -67 33 -35 20 -84 48 -109 62 -335 188 -611 501 -753 852 -41 103
-82 255 -98 369 -18 127 -6 361 24 491 58 246 195 513 385 752 65 81 202 228
214 228 4 0 -22 -60 -57 -133z m4148 -247 c2 -184 7 -345 11 -357 l8 -23 -167
0 -167 0 5 30 c4 16 7 164 8 327 0 164 3 313 6 331 l5 33 144 -3 144 -3 3
-335z m-1275 314 c15 -11 22 -25 22 -50 l0 -34 -145 0 -145 0 0 50 0 50 123 0
c95 0 128 -4 145 -16z m717 -76 c-10 -79 -52 -267 -90 -403 -73 -260 -152
-451 -258 -620 -88 -142 -71 -136 -154 -60 -39 36 -74 65 -76 65 -3 0 20 -24
51 -53 76 -71 576 -540 630 -591 l43 -41 -3 311 c-3 281 -5 314 -20 331 -36
40 -26 43 139 43 l156 0 -21 -23 c-22 -23 -22 -25 -22 -465 l0 -442 -148 0
-148 0 -353 343 c-195 188 -361 347 -370 353 -15 11 -16 -21 -13 -342 l3 -354
-123 0 -124 0 2 318 c0 174 -1 262 -3 195 l-4 -121 -72 -7 c-40 -4 -85 -5
-102 -3 l-30 3 -3 83 c-3 84 -7 91 -46 76 -13 -5 -16 -22 -16 -85 l0 -79 -390
0 -390 0 0 -47 c0 -77 17 -121 53 -140 28 -16 75 -18 397 -23 l365 -5 -1 -27
c-2 -94 -6 -118 -20 -133 -15 -15 -58 -16 -448 -13 -377 4 -437 6 -477 21 -57
22 -114 68 -140 115 l-20 37 6 -40 c15 -95 80 -160 190 -191 52 -15 119 -17
507 -18 l448 -1 0 38 c0 36 1 37 38 37 20 0 61 3 90 6 l52 7 -15 -36 c-8 -20
-15 -39 -15 -41 0 -3 71 -7 157 -8 l158 -3 -50 -32 c-61 -39 -244 -114 -345
-143 -502 -140 -1058 -49 -1439 235 -161 120 -339 300 -317 322 3 4 39 -8 79
-26 159 -73 203 -84 327 -85 64 -1 118 -5 122 -11 4 -5 8 89 8 209 l0 219 73
-6 c40 -4 102 -16 138 -28 60 -20 85 -22 444 -24 209 -1 331 1 270 4 -60 4
-104 8 -97 9 7 1 63 25 124 54 108 49 113 51 155 40 78 -21 76 -23 68 71 l-6
83 74 23 c41 13 83 21 92 17 14 -5 17 -2 13 21 -3 16 -7 35 -9 43 -3 13 14 15
121 14 69 0 104 1 78 3 -27 2 -48 8 -48 12 0 4 26 28 58 53 83 66 223 208 260
263 17 26 49 61 71 77 110 81 142 331 61 475 -22 39 -28 58 -21 70 5 10 15 39
21 65 l12 47 57 4 c31 2 98 4 149 5 l94 2 -7 -52z m-1422 -605 c20 -17 61 -40
92 -49 30 -10 54 -23 52 -28 -6 -19 -138 -104 -277 -178 l-134 -72 69 -33 c53
-24 64 -33 45 -34 -22 -1 -21 -2 9 -10 18 -6 127 -9 242 -7 l209 3 0 -56 c0
-31 -3 -70 -6 -87 l-6 -31 -389 -3 -389 -3 -26 -26 c-14 -15 -29 -42 -33 -60
-4 -19 -13 -33 -18 -32 -6 1 -72 5 -145 9 l-134 7 17 53 c22 67 35 92 68 129
l26 30 -27 -24 -27 -23 -65 22 c-63 21 -66 23 -66 53 0 18 -5 39 -10 47 -8 13
-11 12 -24 -5 -11 -14 -15 -45 -16 -99 l0 -79 -337 6 c-325 7 -401 3 -426 -22
-6 -6 -13 -51 -15 -100 l-4 -89 208 -7 c115 -4 278 -5 363 -2 l153 5 -6 -36
c-3 -20 -6 -58 -6 -84 l0 -48 -355 0 -355 0 0 -190 0 -190 -157 0 c-121 0
-160 -3 -172 -14 -15 -13 -16 8 -18 230 l-2 244 24 0 c22 0 25 4 25 35 0 31
-3 35 -26 35 -27 0 -27 0 -21 59 8 76 40 160 81 214 39 51 121 102 188 116 29
7 197 11 423 11 243 0 375 4 375 10 0 6 -4 10 -10 10 -5 0 -10 6 -10 14 0 7
-19 35 -42 61 l-42 48 64 -9 c122 -17 336 -10 434 14 101 25 226 81 312 139
82 56 188 170 209 227 l18 46 27 -58 c15 -31 43 -71 63 -89z m-1882 -100 c9
-77 36 -199 64 -290 5 -16 3 -23 -6 -23 -26 0 -115 -47 -154 -81 l-38 -34 6
120 c8 163 45 334 98 450 l14 30 2 -40 c2 -22 8 -81 14 -132z m437 -223 l62
-75 -87 -3 c-47 -2 -92 -1 -99 2 -9 3 -11 31 -7 108 6 136 8 140 42 87 15 -24
56 -78 89 -119z m2936 63 c-13 -91 -28 -153 -56 -223 -37 -96 -149 -330 -158
-330 -3 0 -27 21 -52 48 l-47 47 112 171 c62 93 130 205 152 247 22 42 43 77
47 77 4 0 4 -17 2 -37z m880 -170 c-5 -10 -10 -220 -11 -466 l-2 -448 -146 -2
c-134 -2 -161 2 -135 18 14 8 14 862 0 870 -5 3 -15 15 -20 26 -10 18 -6 19
156 19 155 0 166 -1 158 -17z m944 -375 c219 -216 431 -428 471 -470 l74 -78
-174 0 -174 0 -164 170 c-90 94 -169 170 -176 168 -6 -2 -81 -75 -165 -163
-85 -88 -161 -163 -169 -167 -9 -4 -86 -7 -171 -7 l-155 0 25 20 c55 45 470
463 470 473 0 7 -97 108 -215 226 -118 118 -215 215 -215 217 0 2 76 3 170 3
l170 0 398 -392z m462 376 c-14 -9 -109 -100 -212 -202 l-187 -186 -74 69
c-41 39 -75 74 -76 79 0 4 51 64 115 132 l116 124 171 0 c162 0 170 -1 147
-16z m287 -18 c22 -19 28 -32 28 -66 0 -56 -37 -90 -98 -90 -85 0 -131 97 -72
155 34 34 103 35 142 1z m-5673 -280 c20 -23 36 -45 36 -47 0 -2 -23 -5 -50
-7 l-50 -3 0 50 c0 65 16 66 64 7z m2551 -160 l80 -76 -44 -40 c-24 -22 -65
-55 -91 -74 -39 -28 -49 -32 -54 -20 -3 9 -6 81 -6 160 0 170 -8 166 115 50z
m-2541 -172 c14 -37 170 -228 276 -338 240 -248 471 -390 752 -460 266 -68
576 -61 878 18 l55 15 -30 -25 c-50 -40 -222 -121 -350 -163 -378 -124 -770
-133 -1110 -24 -263 84 -464 213 -660 423 -67 71 -145 170 -145 184 0 3 59 6
131 6 l131 0 -6 28 c-4 15 -9 100 -13 190 l-5 162 45 0 c32 0 47 -5 51 -16z
m2116 -153 c0 -21 -32 -35 -105 -46 -22 -4 -52 -9 -67 -11 -25 -5 -28 -3 -28
20 0 23 4 26 38 27 20 0 62 7 92 14 30 7 58 13 63 14 4 0 7 -8 7 -18z m403
-158 c-52 -27 -52 -27 -74 -7 l-21 19 53 6 c92 10 95 9 42 -18z"/>
<path d="M5520 6041 c-25 -3 83 -5 240 -3 157 2 294 4 305 6 38 6 -500 3 -545
-3z"/>
<path d="M4828 4683 c18 -2 45 -2 60 0 15 2 0 4 -33 4 -33 0 -45 -2 -27 -4z"/>
<path d="M4738 4673 c6 -2 18 -2 25 0 6 3 1 5 -13 5 -14 0 -19 -2 -12 -5z"/>
<path d="M9262 4637 c-28 -30 -28 -76 -1 -111 31 -39 38 -32 32 29 -8 75 17
104 61 72 15 -11 17 -17 7 -35 -9 -16 -9 -27 -1 -43 16 -29 3 -38 -16 -11 -21
31 -34 27 -34 -8 0 -27 3 -30 30 -30 68 0 98 96 44 139 -37 29 -94 28 -122 -2z"/>
<path d="M9310 4604 c0 -9 7 -14 17 -12 25 5 28 28 4 28 -12 0 -21 -6 -21 -16z"/>
</g>
</svg>
